<?xml version="1.0" encoding="UTF-8" standalone="no"?>
<svg
   xmlns:dc="http://purl.org/dc/elements/1.1/"
   xmlns:cc="http://web.resource.org/cc/"
   xmlns:rdf="http://www.w3.org/1999/02/22-rdf-syntax-ns#"
   xmlns:svg="http://www.w3.org/2000/svg"
   xmlns="http://www.w3.org/2000/svg"
   xmlns:xlink="http://www.w3.org/1999/xlink"
   xmlns:sodipodi="http://sodipodi.sourceforge.net/DTD/sodipodi-0.dtd"
   xmlns:inkscape="http://www.inkscape.org/namespaces/inkscape"
   height="211.27501"
   version="1.1"
   width="212.16249"
   id="svg2250"
   sodipodi:version="0.32"
   inkscape:version="0.45.1"
   sodipodi:docname="Clockthing.svg"
   inkscape:output_extension="org.inkscape.output.svg.inkscape"
   sodipodi:docbase="C:\Users\Alex\Desktop">
  <sodipodi:namedview
     inkscape:window-height="575"
     inkscape:window-width="765"
     inkscape:pageshadow="2"
     inkscape:pageopacity="0.0"
     guidetolerance="10.0"
     gridtolerance="10.0"
     objecttolerance="10.0"
     borderopacity="1.0"
     bordercolor="#666666"
     pagecolor="#ffffff"
     id="base"
     inkscape:zoom="1.7844041"
     inkscape:cx="106.08125"
     inkscape:cy="105.6375"
     inkscape:window-x="98"
     inkscape:window-y="106"
     inkscape:current-layer="svg2250" />
  <style
     type="text/css"
     id="style2252">
#P0 {fill:url(#R0)}
#P1 {fill:url(#L2);stroke-width:1.2535489}
#P2 {fill:url(#L1)}
#P3 {fill:url(#L3)}
#P4,#P5,#P6 {fill:none;fill-opacity:.75}
#P2,#P4 {stroke-width:3.75}
#P4,#P5 {stroke:#000}
#P5 {stroke-width:3.4538534}
#P6 {stroke:#f00;stroke-width:1.875}
</style>
  <metadata
     id="metadata2254">
    <rdf:RDF>
      <cc:Work>
        <dc:title>Modern Clock</dc:title>
        <dc:subject>
          <rdf:Bag>
            <rdf:li>clock</rdf:li>
            <rdf:li>modern</rdf:li>
          </rdf:Bag>
        </dc:subject>
        <dc:publisher>
          <cc:Agent
             rdf:about="http://www.openclipart.org">
            <dc:title>Chris Kempson</dc:title>
          </cc:Agent>
        </dc:publisher>
        <dc:creator>
          <cc:Agent>
            <dc:title>Chris Kempson</dc:title>
          </cc:Agent>
        </dc:creator>
        <dc:rights>
          <cc:Agent>
            <dc:title>Chris Kempson</dc:title>
          </cc:Agent>
        </dc:rights>
        <dc:format>image/svg+xml</dc:format>
        <dc:type
           rdf:resource="http://purl.org/dc/dcmitype/StillImage" />
        <cc:license
           rdf:resource="http://web.resource.org/cc/PublicDomain" />
        <dc:language>en</dc:language>
      </cc:Work>
      <cc:License
         rdf:about="http://web.resource.org/cc/PublicDomain">
        <cc:permits
           rdf:resource="http://web.resource.org/cc/Reproduction" />
        <cc:permits
           rdf:resource="http://web.resource.org/cc/Distribution" />
        <cc:permits
           rdf:resource="http://web.resource.org/cc/DerivativeWorks" />
      </cc:License>
    </rdf:RDF>
  </metadata>
  <defs
     id="defs2256">
    <linearGradient
       id="L0">
      <stop
         style="stop-color: rgb(0, 0, 0);"
         id="stop2259" />
      <stop
         offset=".87947369"
         style="stop-color: rgb(0, 0, 0); stop-opacity: 0.766129;"
         id="stop2261" />
      <stop
         offset="1"
         style="stop-color: rgb(0, 0, 0); stop-opacity: 0;"
         id="stop2263" />
    </linearGradient>
    <linearGradient
       id="L1"
       x1=".47916669"
       x2=".48611113"
       y1=".014084688"
       y2=".99295759">
      <stop
         style="stop-color: rgb(221, 221, 221);"
         id="stop2266" />
      <stop
         offset="1"
         style="stop-color: rgb(245, 245, 245);"
         id="stop2268" />
    </linearGradient>
    <linearGradient
       id="L2"
       x1=".49305555"
       x2=".49305558"
       y1=".68309879"
       y2="3.1183472e-8">
      <stop
         style="stop-color: rgb(255, 255, 255); stop-opacity: 0;"
         id="stop2271" />
      <stop
         offset="1"
         style="stop-color: rgb(255, 255, 255); stop-opacity: 0.572549;"
         id="stop2273" />
    </linearGradient>
    <linearGradient
       id="L3"
       x1=".47058824"
       x2=".48529410"
       y1=".92957747"
       y2=".0070422534">
      <stop
         style="stop-color: rgb(255, 255, 255); stop-opacity: 0;"
         id="stop2276" />
      <stop
         offset="1"
         style="stop-color: rgb(255, 255, 255); stop-opacity: 0.85;"
         id="stop2278" />
    </linearGradient>
    <linearGradient
       id="L4"
       x1="-2.9137933e-19"
       x2="1"
       xlink:href="#L0"
       y1=".5"
       y2=".5" />
    <radialGradient
       id="R0"
       cx=".5"
       cy=".5"
       fx=".5"
       fy=".5"
       r=".5"
       xlink:href="#L0" />
  </defs>
  <path
     id="P0"
     d="M348.37518 364.24921A 103.64882 103.64882 0 1 0 141.07755,364.24921A 103.64882 103.64882 0 1 0 348.37518 364.24921z"
     transform="translate(-136.215, -256.623)" />
  <path
     d="M348.37518 364.24921A 103.64882 103.64882 0 1 0 141.07755,364.24921A 103.64882 103.64882 0 1 0 348.37518 364.24921z"
     transform="translate(-141.077, -260.601)"
     id="path2283" />
  <path
     id="P1"
     d="M348.37518 364.24921A 103.64882 103.64882 0 1 0 141.07755,364.24921A 103.64882 103.64882 0 1 0 348.37518 364.24921z"
     transform="matrix(0.936977, 0.0144517, 0, 0.969458, -124.104, -254.302)" />
  <path
     d="M198.55874 103.54633A 83.225685 83.225685 0 1 0 32.107368,103.54633A 83.225685 83.225685 0 1 0 198.55874 103.54633z"
     transform="matrix(1.06091, 0, 0, 1.14793, -18.7442, -6.87303)"
     id="path2286" />
  <path
     id="P2"
     d="M345.42367 388.1384A 82.601311 82.601311 0 1 0 180.22105,388.1384A 82.601311 82.601311 0 1 0 345.42367 388.1384z"
     transform="translate(-159.116, -285.23)" />
  <path
     id="P3"
     d="M178.85574 945.18524A 72.361481 75.774757 0 1 0 34.132782,945.18524A 72.361481 75.774757 0 1 0 178.85574 945.18524z"
     transform="matrix(0.96497, 0, 0, 0.905405, 0.99974, -759.12)" />
  <g
     transform="translate(-1.10521, -845.096)"
     id="g2290">
    <path
       id="P4"
       d="M110.59018,958.15572L 79.870691,910.36983" />
    <path
       id="P5"
       d="M98.933011,958.94485L 135.90047,891.8317" />
    <path
       id="P6"
       d="M91.475836,950.64651L 171.34653,942.45465" />
  </g>
  <rect
     height="9.060586"
     width="3.7730832"
     x="101.875"
     y="26.224121"
     id="rect2295" />
  <rect
     height="9.060586"
     width="3.7730832"
     x="101.875"
     y="170.19658"
     id="rect2297" />
  <rect
     height="9.060586"
     transform="matrix(0, 1, -1, 0, 0, 0)"
     width="3.7730832"
     x="100.62693"
     y="-36.990318"
     id="rect2299" />
  <rect
     height="9.060586"
     transform="matrix(0, 1, -1, 0, 0, 0)"
     width="3.7730832"
     x="100.62693"
     y="-179.36115"
     id="rect2301" />
  <path
     d="M 203.21339,153.80902 C 207.1059,180.02249 189.52306,204.16852 163.93541,207.58504 C 138.33618,211.00706 114.44897,192.47116 110.57381,166.19735 C 106.71021,139.93452 124.28148,115.80495 149.846,112.40488 C 175.41052,109.00481 199.12421,127.5407 203.17289,153.80902 L 203.21338,153.80902 L 203.21339,153.80902 z "
     id="p2"
     style="fill:#ac9d93" />
  <path
     d="M 193.95173,155.05392 C 197.05938,176.07404 182.98733,195.32285 162.51259,198.06485 C 142.06674,200.80137 122.9512,186.00006 119.82792,164.94154 C 116.7625,143.93784 130.8172,124.63418 151.29195,121.8922 C 171.76672,119.20504 190.85334,133.95696 193.95175,155.07034 L 193.95175,155.07034 L 193.95175,155.05392 L 193.95173,155.05392 z "
     id="p3"
     style="fill:#f2f2f2" />
  <path
     d="M 139.8504,132.60974 C 139.85825,132.60974 140.47231,127.97088 156.74498,128.20283 C 173.01763,128.43476 173.32466,132.60974 173.32466,132.60974 C 173.22184,143.67967 157.29815,150.57619 157.46434,160.17122 C 157.52773,163.83008 161.35044,169.25679 164.72779,172.15609 C 168.10513,175.05538 171.94302,178.88244 172.55707,182.24561 C 173.17114,185.60879 173.63169,188.39211 173.63169,188.39211 C 173.63169,188.39211 169.9473,193.49487 157.9731,193.26293 C 145.99887,193.03098 140.12369,190.12528 139.85825,188.04421 C 139.833,187.84627 141.18629,181.99535 141.23173,181.86621 C 143.08976,176.58492 147.0889,174.50881 149.99028,170.76442 C 149.99028,170.76442 155.27514,163.92413 154.85025,160.22698 C 154.58603,150.49666 140.14748,144.0844 139.85825,132.60974 L 139.8504,132.60974 z "
     id="p4"
     style="fill:#d9d3d0;stroke:#ac9d93;stroke-width:1.97117043" />
  <path
     d="M 152.86401,148.84683 C 151.89977,148.87937 150.91915,149.03334 149.91786,149.32667 C 150.21671,149.60708 151.12159,152.82133 152.46637,155.20483 C 153.57512,157.16998 154.86063,160.05469 155.35828,161.18581 L 155.35828,175.64983 C 154.51919,176.66319 153.10349,178.11981 151.19826,179.43722 C 147.88281,181.73526 145.31958,185.42398 141.73013,190.93647 C 145.79922,191.87036 151.31565,192.90728 155.17754,192.90728 C 159.03942,192.90728 166.76094,192.05888 170.83002,191.12498 C 168.26454,186.09136 164.55083,181.73526 161.23249,179.43722 C 159.37176,178.14861 157.99361,176.72878 157.14766,175.71838 L 157.14766,160.48317 C 157.48444,159.10312 157.99091,157.24674 158.44901,156.473 C 159.19611,155.21115 161.28671,150.44061 161.28671,150.44061 C 158.52071,149.64668 155.75669,148.74918 152.86401,148.84683 L 152.86401,148.84683 z "
     id="p5"
     style="fill:#ac9d93" />
</svg>
